<mxfile host="app.diagrams.net" modified="2024-08-08T16:25:29.653Z" agent="Mozilla/5.0 (Windows NT 10.0; Win64; x64) AppleWebKit/537.36 (KHTML, like Gecko) Chrome/126.0.0.0 Safari/537.36" version="24.4.13" etag="dmxjsbbSxrIUS9mCA0Kg" type="github">
  <diagram name="Page-1" id="lGCuB5rJn0VkzJDwDPvx">
    <mxGraphModel>
      <root>
        <mxCell id="0" />
        <mxCell id="1" parent="0" />
      </root>
    </mxGraphModel>
  </diagram>
</mxfile>
